<?xml version="1.0" encoding="UTF-8" standalone="no"?>
<!-- Created with Inkscape (http://www.inkscape.org/) -->

<svg
   width="210mm"
   height="297mm"
   viewBox="0 0 210 297"
   version="1.1"
   id="svg1"
   inkscape:version="1.3.2 (1:1.3.2+202311252150+091e20ef0f)"
   sodipodi:docname="drawing.svg"
   xmlns:inkscape="http://www.inkscape.org/namespaces/inkscape"
   xmlns:sodipodi="http://sodipodi.sourceforge.net/DTD/sodipodi-0.dtd"
   xmlns="http://www.w3.org/2000/svg"
   xmlns:svg="http://www.w3.org/2000/svg">
  <sodipodi:namedview
     id="namedview1"
     pagecolor="#ffffff"
     bordercolor="#000000"
     borderopacity="0.25"
     inkscape:showpageshadow="2"
     inkscape:pageopacity="0.0"
     inkscape:pagecheckerboard="0"
     inkscape:deskcolor="#d1d1d1"
     inkscape:document-units="mm"
     inkscape:zoom="0.44008137"
     inkscape:cx="396.51758"
     inkscape:cy="561.25984"
     inkscape:window-width="1130"
     inkscape:window-height="736"
     inkscape:window-x="70"
     inkscape:window-y="27"
     inkscape:window-maximized="1"
     inkscape:current-layer="layer1" />
  <defs
     id="defs1" />
  <g
     inkscape:label="Layer 1"
     inkscape:groupmode="layer"
     id="layer1">
    <path
       style="stroke-width:0.264583;stroke:#000000;fill:none"
       d="M 40.917397,200.26867 C 57.398927,79.022836 -8.2004838,90.119564 57.398927,79.022836 122.99834,67.926108 95.394009,8.2550862 124.05815,67.926108 152.7223,127.59713 202.48587,81.59275 151.85592,138.087 c -50.62994,56.49424 18.05446,43.36817 18.05446,43.36817"
       id="path1" />
    <path
       style="fill:none;stroke:#000000;stroke-width:0.264583"
       d="m 52.314658,135.70478 c 68.107582,-5.04475 87.847222,-28.23984 87.847222,-28.23984"
       id="path2" />
    <path
       style="stroke:#000000;stroke-width:0.264583;fill:none"
       id="path3"
       d="m 18.803124,49.240114 c 3.011903,-0.735251 5.846785,-1.990064 8.678263,-3.224213 5.387837,-2.501807 10.625523,-5.287848 16.091196,-7.621238 4.251947,-1.795393 8.696185,-2.959848 13.279495,-3.433019 1.762972,-0.154953 3.533143,-0.159678 5.299708,-0.08448 1.009115,0.121018 1.91367,-0.382966 2.885167,-0.614611 2.708032,-0.516782 5.462551,-0.492747 8.203303,-0.369864 4.765908,0.369792 9.546463,0.278892 14.317144,0.08458 6.811438,-0.254707 13.61569,-0.66149 20.41631,-1.115748 2.52322,-0.08386 4.96166,-0.385821 7.32499,-1.270545 2.25335,-0.922589 4.58425,-1.634011 6.93426,-2.262595 1.77094,-0.399254 3.47035,-1.042834 5.21477,-1.533012 2.58013,-0.6604 5.25026,-0.586806 7.88338,-0.401238 0.75041,0.08966 1.55258,0.117541 2.25883,0.426048 0.21295,0.09302 0.81132,0.453522 0.60643,0.34389 -2.84851,-1.524149 -3.43739,-2.120443 -2.00958,-0.876128 1.15973,1.114007 2.20043,2.351047 3.14031,3.654586 0.71823,0.993825 1.18585,2.11659 1.59641,3.263196 0.50182,1.568593 0.92064,3.163274 1.34075,4.755444 0.35498,1.348163 0.72215,2.693349 0.97291,4.065524 0.0256,0.149129 0.0513,0.298259 0.0769,0.447389 0,0 3.52644,1.716505 3.52644,1.716505 v 0 c -0.0297,-0.150952 -0.0595,-0.301905 -0.0892,-0.452858 -0.25549,-1.391137 -0.64888,-2.75064 -1.01109,-4.116718 -0.4187,-1.595398 -0.83121,-3.193732 -1.30969,-4.772295 -0.38823,-1.17748 -0.80823,-2.342658 -1.53959,-3.358629 -0.92893,-1.337937 -2.00204,-2.578047 -3.13793,-3.743843 -2.08405,-1.994397 -4.60703,-3.526978 -7.49096,-3.609131 -2.66309,-0.119399 -5.35888,-0.154896 -7.96505,0.495294 -1.74778,0.466309 -3.44716,1.094664 -5.20063,1.544614 -2.35063,0.679347 -4.69687,1.385711 -6.98094,2.267429 -2.28008,0.813255 -4.64241,1.162481 -7.05681,1.333958 -6.746466,0.616487 -13.508962,1.041731 -20.283126,1.191466 -4.855345,0.119351 -9.711158,0.123643 -14.555044,-0.290645 -2.790875,-0.109055 -5.591665,-0.102036 -8.35171,0.391245 -0.958192,0.221591 -1.886408,0.603705 -2.883641,0.492951 -1.724081,-0.01812 -3.448455,0.05867 -5.162661,0.249872 -4.542076,0.582441 -8.931672,1.831552 -13.138693,3.656431 -1.903621,0.821872 -3.868967,1.649589 -5.740728,2.542339 -3.479702,1.659665 -6.844109,3.566593 -10.41599,5.032901 -2.916914,1.196197 -5.866759,2.380829 -8.9837,2.94663 z" />
    <circle
       id="path4"
       style="fill:#000000;stroke:#000000;stroke-width:0.264583"
       cx="85.347321"
       cy="131.07974"
       r="0.080081195" />
  </g>
</svg>
