<?xml version="1.0" encoding="UTF-8" standalone="no"?>
<!-- Created with Inkscape (http://www.inkscape.org/) -->

<svg
   width="210mm"
   height="297mm"
   viewBox="0 0 210 297"
   version="1.1"
   id="svg1"
   inkscape:version="1.3.2 (1:1.3.2+202311252150+091e20ef0f)"
   sodipodi:docname="logo.svg"
   xmlns:inkscape="http://www.inkscape.org/namespaces/inkscape"
   xmlns:sodipodi="http://sodipodi.sourceforge.net/DTD/sodipodi-0.dtd"
   xmlns="http://www.w3.org/2000/svg"
   xmlns:svg="http://www.w3.org/2000/svg">
  <sodipodi:namedview
     id="namedview1"
     pagecolor="#ffffff"
     bordercolor="#000000"
     borderopacity="0.25"
     inkscape:showpageshadow="2"
     inkscape:pageopacity="0.0"
     inkscape:pagecheckerboard="0"
     inkscape:deskcolor="#d1d1d1"
     inkscape:document-units="mm"
     inkscape:zoom="0.44008137"
     inkscape:cx="414.69604"
     inkscape:cy="561.25984"
     inkscape:window-width="1130"
     inkscape:window-height="736"
     inkscape:window-x="70"
     inkscape:window-y="27"
     inkscape:window-maximized="1"
     inkscape:current-layer="layer1" />
  <defs
     id="defs1" />
  <g
     inkscape:label="Layer 1"
     inkscape:groupmode="layer"
     id="layer1">
    <g
       id="g1"
       transform="matrix(0.99999808,0.00196054,0.00196054,-0.99999808,-0.28703479,292.81386)">
      <path
         style="font-size:50.8px;font-family:Chilanka;-inkscape-font-specification:Chilanka;stroke-width:0.264583"
         d="m 118.08121,265.12461 c 0.10274,2.45351 -0.408,4.48583 -1.48574,6.02055 -1.1717,1.66278 -3.9936,3.0471 -8.44195,4.12711 -3.44056,0.83922 -8.433229,1.37103 -14.926373,1.64293 -1.883502,0.0789 -3.916746,0.13918 -6.050149,0.17888 -0.892186,0.0374 -1.630367,0.78824 -1.595085,1.63086 0.03492,0.84264 0.7872,1.60558 1.630857,1.59508 2.034284,-0.0356 3.968387,-0.0917 5.80233,-0.16851 6.889663,-0.28849 12.20244,-0.88337 15.91456,-1.75878 7.47177,-1.80246 12.78611,-4.73107 12.42082,-13.45468 -0.14321,-3.42005 -1.31589,-6.5239 -3.21637,-8.62905 -3.59439,-4.02031 -9.80296,-5.84576 -18.551348,-5.47943 -4.163543,0.17435 -8.878412,0.81866 -14.167314,1.98353 -0.885959,0.18606 -1.253432,0.89658 -1.225409,1.56573 0.03492,0.84264 0.640573,1.66137 1.631899,1.61986 0.09912,-0.004 0.198261,-0.008 0.296358,-0.0372 5.117495,-1.10804 9.583493,-1.76675 13.400068,-1.92657 9.962746,-0.41718 18.178876,1.92002 18.562846,11.08972 z m 2.04112,-21.8086 c -0.0291,-0.69392 -0.80173,-1.95254 -1.54521,-1.92141 -0.19827,0.008 -0.44195,0.11779 -0.86326,0.13543 -0.76827,0.0322 -1.49113,-0.0368 -2.98226,-0.0737 -1.84432,-0.17104 -3.61948,-0.4691 -5.29964,-0.87045 -7.07183,-1.68998 -10.968566,-4.63011 -11.664384,-8.79664 -0.138627,-0.9376 -0.850136,-1.32985 -1.568843,-1.29976 -0.842615,0.0353 -1.661374,0.64058 -1.619865,1.6319 0.0031,0.0743 0.0056,0.12389 0.0086,0.19825 0.693746,4.11696 3.456688,7.25352 8.290902,9.45926 -2.87172,0.19472 -4.968927,0.50598 -6.292674,0.90899 -0.612319,0.19942 -1.182196,0.81913 -1.150028,1.58739 0.04155,0.99132 0.759306,1.53228 1.701052,1.49284 0.272618,-0.0114 0.593757,-0.0497 0.93657,-0.16335 0.784747,-0.23148 2.98421,-0.47253 6.64793,-0.72525 1.2629,-0.0777 2.40188,-0.15022 3.44277,-0.19381 2.89959,-0.12141 6.38478,0.10504 8.19809,0.12842 0.59686,0.0247 1.30325,0.29299 1.92282,0.26704 0.74348,-0.0311 1.87611,-0.84817 1.83772,-1.76515 z M 95.247103,207.7635 98.1044,207.8176 c 1.614006,0.007 3.15159,-0.0327 4.589,-0.0929 0.71871,-0.0301 1.43638,-0.085 2.10552,-0.11299 4.87107,0.7146 8.24608,2.46009 10.17354,5.20958 0.73855,1.03661 1.07746,2.01548 1.11585,2.93245 0.0934,2.23046 -1.69579,3.96876 -4.03863,4.93579 -1.68408,0.69118 -3.62949,1.07056 -5.85995,1.16396 -2.94917,0.1235 -6.367272,-0.27956 -10.27804,-1.18334 -1.103942,-0.27651 -1.98044,0.72842 -1.944116,1.59583 0.02899,0.69393 0.505249,1.39394 1.232256,1.56211 4.259799,0.93881 7.97633,1.3542 11.2229,1.21825 6.09661,-0.25529 11.13537,-2.65101 12.4986,-6.85412 0.28482,-0.90566 0.39719,-1.7793 0.36191,-2.62192 -0.16916,-4.03962 -3.65599,-7.27001 -6.57557,-8.81112 3.66983,-0.69986 5.7886,-1.68233 6.38106,-2.94846 0.63789,-1.36734 -0.10793,-2.57743 -1.37186,-2.52451 -0.57001,0.0239 -1.12859,0.32035 -1.40316,0.87804 -0.0475,0.0516 -0.14455,0.10533 -0.31388,0.21175 -1.67162,0.98858 -5.34249,1.66365 -11.06322,2.00251 -1.72247,-0.2258 -3.53785,-0.29874 -5.446138,-0.21883 -1.387844,0.0581 -2.822146,0.19264 -4.302902,0.40362 -0.765154,0.10651 -1.428984,0.85428 -1.395774,1.64734 0.03164,0.74346 0.629159,1.38876 1.455306,1.55278 z m -2.002411,-20.54691 c 0.100661,2.40395 1.696486,4.34806 4.808099,5.73217 -1.739879,0.54456 -3.075961,1.246 -4.058847,2.0816 -0.406781,0.36461 -0.562629,0.79318 -0.544978,1.21449 0.03624,0.86741 0.815093,1.67889 1.707279,1.64153 0.32218,-0.0135 0.640204,-0.12609 0.950968,-0.41222 1.652944,-1.43467 5.017087,-2.32033 10.140927,-2.68385 2.09318,0.18545 4.42797,0.21181 6.98063,0.10492 1.06566,-0.0446 2.17986,-0.1161 3.34258,-0.21444 0.96446,-0.09 1.45169,-0.90489 1.41848,-1.69794 -0.0322,-0.76828 -0.53418,-1.49205 -1.47905,-1.52695 l -1.71624,-0.0771 c -1.61713,-0.0813 -3.5027,-0.0519 -5.68361,0.0394 -0.89218,0.0374 -1.83394,0.0768 -2.82424,0.1426 -3.16508,-0.28952 -5.64765,-0.88071 -7.449798,-1.82313 -1.573899,-0.82784 -2.382644,-1.76221 -2.425195,-2.7783 -0.04982,-1.18959 0.912321,-2.52085 2.911193,-3.99483 1.83058,-1.3428 4.32213,-2.31607 7.49941,-2.92081 1.21851,0.0482 2.53305,0.0181 3.89612,-0.039 1.63567,-0.0685 3.36841,-0.19065 5.22194,-0.39245 0.9376,-0.13853 1.40109,-0.9276 1.36892,-1.69587 -0.0311,-0.74349 -0.50836,-1.46831 -1.42949,-1.52903 -1.74415,-0.15042 -3.25901,-0.16145 -4.64686,-0.10334 -1.63567,0.0685 -3.11747,0.25468 -4.62092,0.51624 -3.20843,-0.13874 -6.15876,-0.63586 -8.746816,-1.96741 -1.598689,-0.82681 -2.414693,-1.93465 -2.465544,-3.14901 -0.04563,-1.09046 0.550955,-2.25747 1.771298,-3.35127 1.866663,-1.66706 4.750572,-2.75605 8.418462,-2.90965 2.87481,-0.12036 5.98111,0.54399 9.29513,2.01894 1.2651,0.56769 2.26033,-0.56635 2.21985,-1.53289 -0.0249,-0.59478 -0.32139,-1.15338 -0.90385,-1.42691 -3.76842,-1.65453 -7.35078,-2.42308 -10.77084,-2.27987 -4.41136,0.18468 -7.930295,1.52373 -10.251215,3.60704 -1.93893,1.71973 -3.16526,3.85651 -3.072899,6.06219 0.04778,1.14001 0.468264,2.28924 1.334869,3.4198 1.285982,1.65918 3.374221,2.91236 6.238907,3.73581 -3.331961,1.65393 -6.58725,4.54597 -6.434696,8.18908 z m 20.751698,-30.31311 c 1.21437,-0.0508 2.25928,-0.59113 2.20635,-1.85507 -0.0363,-0.8674 -0.85532,-1.45376 -1.75166,-1.51554 -0.84677,-0.0638 -2.01469,-0.0894 -3.45521,-0.10358 3.64779,-2.41195 5.38094,-5.48852 5.22839,-9.13162 -0.18991,-4.53528 -2.11542,-7.83105 -5.42853,-9.87704 -2.29378,-1.41837 -4.97461,-2.00124 -7.62638,-1.8902 -3.568754,0.14946 -7.085609,1.53802 -9.576905,3.70295 -2.155751,1.87776 -3.174471,4.22928 -3.056159,7.05454 0.01021,0.24783 0.0201,0.47085 0.0549,0.71766 0.331099,3.16393 2.252466,6.36056 5.763041,9.56512 -2.059053,0.0366 -4.811004,0.127 -8.257913,0.22167 l -6.05016,0.17887 c -0.86741,0.0362 -1.605577,0.78721 -1.569253,1.65461 0.03736,0.89218 0.762409,1.60662 1.654596,1.56926 l 6.074948,-0.17992 c 7.240776,-0.20392 12.324395,-0.34229 15.277715,-0.36666 0.35215,0.10938 1.04815,0.1299 2.08903,0.0863 0.0743,-0.003 0.12389,-0.006 0.19826,-0.009 2.52786,-0.10586 5.89535,0.2745 8.22495,0.17695 z m -0.99288,-12.44612 c 0.14633,3.4944 -2.4925,6.28616 -7.91649,8.37527 -0.68458,0.25209 -1.17297,0.44633 -1.48997,0.58374 -0.71974,0.005 -1.48801,0.0375 -2.25732,0.0449 -4.688878,-3.47796 -7.21021,-6.77361 -7.564016,-9.88693 -0.0056,-0.12388 -0.0089,-0.22306 -0.0145,-0.34696 -0.181618,-4.33701 4.587507,-7.24279 9.395406,-7.44413 5.62573,-0.23562 9.61239,3.07318 9.84692,8.67414 z m -21.836924,-34.14049 2.857297,0.0541 c 1.614006,0.007 3.151591,-0.0327 4.588995,-0.0929 0.718706,-0.0303 1.436402,-0.0846 2.105522,-0.11298 4.87108,0.7146 8.24608,2.46009 10.17354,5.20958 0.73855,1.03661 1.07746,2.01548 1.11586,2.93244 0.0934,2.23047 -1.69579,3.96877 -4.03864,4.9358 -1.68408,0.69118 -3.62949,1.07056 -5.85995,1.16396 -2.949163,0.12353 -6.367269,-0.27957 -10.278037,-1.18334 -1.103942,-0.27651 -1.98044,0.72842 -1.944116,1.59582 0.02899,0.69393 0.505249,1.39396 1.232256,1.56212 4.259799,0.93881 7.976334,1.3542 11.222897,1.21824 6.09661,-0.25532 11.13537,-2.651 12.49861,-6.85409 0.28482,-0.90569 0.39718,-1.77932 0.3619,-2.62195 -0.16915,-4.03961 -3.65599,-7.27 -6.57557,-8.81111 3.66984,-0.69985 5.7886,-1.68233 6.38106,-2.94847 0.63789,-1.36732 -0.10792,-2.57742 -1.37186,-2.52449 -0.57003,0.0234 -1.12859,0.32034 -1.40316,0.87803 -0.0475,0.0516 -0.14455,0.10534 -0.31387,0.21175 -1.67163,0.98857 -5.3425,1.66365 -11.06322,2.00251 -1.722472,-0.2258 -3.537852,-0.29874 -5.446145,-0.21883 -1.387846,0.0581 -2.822144,0.19266 -4.302901,0.40363 -0.765154,0.10649 -1.428984,0.85428 -1.395775,1.64733 0.03164,0.74346 0.629159,1.38876 1.455306,1.55278 z m 4.010936,-23.97649 c 0.594798,-0.02471 1.211242,-0.12518 1.847309,-0.350453 2.546282,-0.851415 4.411769,-3.139085 4.996739,-5.77035 0.20839,-0.952129 0.27109,-2.419519 0.1891,-4.377371 -0.0362,-0.867411 -0.15734,-1.97952 -0.19889,-2.970844 -0.0954,-2.280032 0.58472,-3.822923 1.99203,-4.601822 0.46153,-0.242763 0.90244,-0.385365 1.34853,-0.404037 0.76829,-0.03196 1.5263,0.283652 2.27198,0.897914 1.36435,1.159369 2.10718,2.890938 2.20265,5.170969 0.15359,3.667876 -0.89498,6.492353 -2.83067,8.882266 -0.23537,0.307771 -0.34373,0.684706 -0.32712,1.081234 0.0363,0.867396 0.76138,1.581829 1.65356,1.544474 0.4461,-0.01878 0.90868,-0.236665 1.19154,-0.596079 2.14732,-2.671863 3.34965,-5.974477 3.55639,-9.93053 0.009,-0.372789 0.0195,-0.720779 0.005,-1.067748 -0.0716,-1.710023 -0.48602,-3.30639 -1.27011,-4.837617 -1.21797,-2.406814 -3.03983,-3.82011 -5.46661,-4.264677 -0.40068,-0.08253 -0.79824,-0.0907 -1.19476,-0.0741 -0.8922,0.03736 -1.77505,0.297769 -2.67333,0.782263 -2.717578,1.504074 -3.825055,4.107565 -3.646561,8.370238 0.03624,0.867411 0.174871,1.805009 0.208051,2.598068 0.10066,2.40395 -0.297571,4.158467 -1.196776,5.21401 -0.804231,0.952249 -1.701473,1.461523 -2.692799,1.503033 -0.371726,0.01582 -0.7466,-0.0432 -1.148316,-0.150522 -1.884663,-0.541744 -2.885691,-2.51077 -3.027871,-5.906036 -0.139047,-3.320918 1.524811,-6.866285 3.2551,-8.825548 0.283902,-0.334634 0.392253,-0.711569 0.373571,-1.157657 -0.06419,-0.940716 -0.883216,-1.527082 -1.701053,-1.492841 -0.396553,0.01614 -0.786829,0.181909 -1.09448,0.542364 -2.843201,3.247187 -4.215778,7.227239 -4.015488,12.01035 0.182639,4.361803 2.758867,8.375115 7.393288,8.181052 z M 88.578777,60.375161 c 6.923534,-1.258156 12.283673,-2.500493 16.128943,-3.753875 3.8463,-1.228592 6.14464,-2.665464 6.89711,-4.261039 0.25185,-0.507072 0.35605,-0.983136 0.33529,-1.478794 -0.0623,-1.486984 -1.3616,-2.872507 -3.92177,-4.130755 -3.37292,-1.695917 -9.980085,-3.554311 -19.795677,-5.551453 -0.149741,-0.01855 -0.274691,-0.03813 -0.398599,-0.03292 -0.991324,0.04155 -1.501262,0.906964 -1.465979,1.749591 0.02767,0.669156 0.427785,1.322706 1.228101,1.462986 12.544954,2.553163 19.564214,4.766706 21.034044,6.666439 -1.38643,1.870386 -8.25198,3.920557 -20.620388,6.176326 -0.912823,0.137505 -1.304034,0.873874 -1.273938,1.592581 0.0346,0.817818 0.614751,1.637626 1.581288,1.597157 0.07434,-0.0031 0.17348,-0.0072 0.271577,-0.03621 z m 22.543503,-34.36037 c -0.0259,-0.619569 -0.15412,-1.309341 -0.40728,-2.018706 -0.43425,-2.663073 -3.574,-5.31216 -9.36865,-7.924554 0.64332,-0.05173 1.28767,-0.07878 1.90725,-0.104716 5.25399,-0.220004 9.47344,0.348103 12.6088,1.706393 3.18595,1.381007 5.50049,3.295026 5.66134,7.136381 0.0166,0.396527 0.0105,0.843658 -0.0204,1.291828 -0.14106,1.967193 -0.82217,4.081134 -2.06808,6.342862 -0.66785,1.244461 0.37431,2.417317 1.48954,2.370611 0.54522,-0.02307 1.0553,-0.292453 1.33194,-0.800566 1.47714,-2.668629 2.28618,-5.284455 2.47773,-7.82477 0.0278,-0.52252 0.0566,-1.02025 0.0368,-1.491128 -0.21482,-5.130069 -3.62108,-8.214872 -7.61773,-9.983978 -3.61558,-1.561625 -8.26049,-2.21122 -14.01014,-1.970451 -2.23046,0.09341 -8.50977,0.728737 -9.8356,1.082173 -4.644674,0.542063 -8.077597,3.342241 -7.879379,8.075782 0.04666,1.115237 0.294775,2.296521 0.790683,3.467423 1.272855,3.12448 3.651474,5.383386 7.134827,6.751939 2.372151,0.918548 4.797878,1.338326 7.276179,1.234551 5.20443,-0.217962 10.68927,-2.632333 10.49209,-7.341094 z m -3.28069,-0.08605 c 0.0301,0.718706 -0.26303,1.426121 -0.83083,2.095378 -0.92399,1.056574 -3.66544,1.99064 -6.51549,2.109994 -2.032192,0.08504 -4.058294,-0.276946 -6.103071,-1.085071 -2.549786,-1.01042 -4.280804,-2.62613 -5.195156,-4.8967 -0.33165,-0.805381 -0.515632,-1.64178 -0.550914,-2.484397 -0.117301,-2.800477 1.512976,-4.184539 4.994917,-4.628263 0.07434,-0.0031 0.246796,-0.03519 0.493588,-0.07029 0.549373,0.0763 1.8072,0.470509 3.772451,1.157838 2.922555,1.019631 7.009125,3.157362 8.723675,4.972382 0.57221,0.62152 0.86246,1.031415 0.87284,1.279244 0.0249,0.594797 0.31516,1.004692 0.33799,1.54992 z"
         id="text1"
         aria-label="Urumbu svg" />
    </g>
  </g>
</svg>
