<?xml version="1.0" encoding="UTF-8" standalone="no"?>
<!-- Created with Inkscape (http://www.inkscape.org/) -->

<svg
   width="210mm"
   height="297mm"
   viewBox="0 0 210 297"
   version="1.1"
   id="svg1"
   xml:space="preserve"
   sodipodi:docname="portrait.svg"
   inkscape:version="1.3.2 (1:1.3.2+202311252150+091e20ef0f)"
   xmlns:inkscape="http://www.inkscape.org/namespaces/inkscape"
   xmlns:sodipodi="http://sodipodi.sourceforge.net/DTD/sodipodi-0.dtd"
   xmlns="http://www.w3.org/2000/svg"
   xmlns:svg="http://www.w3.org/2000/svg"><sodipodi:namedview
     id="namedview1"
     pagecolor="#ffffff"
     bordercolor="#000000"
     borderopacity="0.25"
     inkscape:showpageshadow="2"
     inkscape:pageopacity="0.0"
     inkscape:pagecheckerboard="0"
     inkscape:deskcolor="#d1d1d1"
     inkscape:document-units="mm"
     inkscape:zoom="0.44008137"
     inkscape:cx="397.65373"
     inkscape:cy="561.25984"
     inkscape:window-width="1130"
     inkscape:window-height="736"
     inkscape:window-x="70"
     inkscape:window-y="27"
     inkscape:window-maximized="1"
     inkscape:current-layer="layer1" /><defs
     id="defs1" /><g
     inkscape:label="Layer 1"
     inkscape:groupmode="layer"
     id="layer1"><path
       style="fill:#000000;stroke-width:1.99008"
       d="m 207.96956,169.80996 c -0.50303,0.83431 -1.6528,0.93372 -11.65627,1.00788 l -11.0982,0.0823 0.29782,-1.97679 c 0.73708,-4.89267 -1.6231,-12.28842 -5.35207,-16.77092 -1.63919,-1.97044 -5.95565,-5.39221 -6.79425,-5.386 -0.16139,0.001 0.49839,1.24028 1.46624,2.75355 5.3536,8.37035 6.51371,17.71276 3.43964,27.69908 -1.52049,4.93939 -3.45019,8.10261 -6.7315,11.03438 -3.5523,3.1739 -5.24435,2.94229 -2.90339,-0.39743 0.57967,-0.82697 1.79249,-3.11281 2.69518,-5.07964 1.31139,-2.8574 1.68068,-4.45163 1.83753,-7.9328 l 0.19628,-4.35673 -1.86929,-1.84179 c -1.3348,-1.31514 -2.33605,-1.83834 -3.50154,-1.8297 l -1.63224,0.0121 -0.0553,9.34677 c -0.0306,5.14072 0.01,10.72666 0.09,12.41319 0.14688,3.11449 -0.53053,5.37977 -1.4429,4.8252 -0.27632,-0.16797 -0.51161,-1.54694 -0.52286,-3.0644 -0.0226,-3.054 -0.51999,-3.95658 -6.1076,-11.08378 -2.87376,-3.6656 -3.18127,-4.30566 -3.40287,-7.08314 l -0.24363,-3.05341 -1.61933,0.47744 c -3.61807,1.06674 -8.35835,-1.56528 -11.0865,-6.15572 -0.98346,-1.65478 -2.18802,-3.08264 -2.67677,-3.17302 -1.28957,-0.23845 -1.10563,1.35831 0.37745,3.27642 2.12794,2.75213 2.18303,3.68846 0.44037,7.48546 -1.45352,3.16707 -1.5222,3.56169 -0.79709,4.58078 2.26406,3.18191 -0.0575,6.1527 -4.83556,6.18812 -2.36989,0.0176 -3.57125,-0.34433 -6.65744,-2.00551 -10.06151,-5.41569 -24.961,-7.27726 -32.329032,-4.03925 -4.49808,1.97676 -4.372669,4.06743 0.424333,7.07371 5.197429,3.25721 7.763209,5.80516 9.667219,9.60002 1.63178,3.25229 1.7594,3.8761 1.79574,8.77877 0.0344,4.62807 -0.13244,5.65072 -1.35388,8.30823 -1.58314,3.44415 -5.27909,7.43282 -8.846094,9.54665 -1.332844,0.78986 -4.514771,2.05902 -7.070971,2.82036 -5.106855,1.52104 -6.328676,2.40385 -8.053102,5.81869 -1.263046,2.50117 -2.788025,3.47729 -5.463556,3.49712 -2.122751,0.0158 -3.425251,-1.28032 -3.860332,-3.84126 -0.280408,-1.65035 -0.09616,-2.12014 1.443253,-3.67957 1.237695,-1.25383 2.627998,-1.99337 4.65562,-2.47648 3.671478,-0.87479 11.536374,-4.61123 15.58227,-7.4028 5.590312,-3.85718 8.151502,-7.66014 8.118922,-12.05534 -0.0586,-7.90447 -9.217386,-17.15329 -17.683932,-17.85777 -3.242124,-0.26977 -6.289719,0.56405 -6.28116,1.71853 0.0021,0.34596 1.278928,1.14614 2.836382,1.77818 3.964066,1.60868 5.285654,3.11418 4.97304,5.6651 -0.135684,1.10641 -0.611734,2.96217 -1.058105,4.1239 -1.553669,4.04365 -0.69403,10.4468 1.569644,11.69166 0.601102,0.33057 1.862989,0.13048 3.99131,-0.63289 3.414528,-1.22469 4.82026,-0.91774 5.140433,1.12246 0.25709,1.63806 -1.533028,2.36382 -4.865344,1.97255 -2.407741,-0.28272 -3.042832,-0.16139 -4.369528,0.83477 -0.853769,0.64106 -2.034483,2.03857 -2.623793,3.10556 -1.619512,2.93218 -3.223365,4.1968 -6.88574,5.42924 -1.831572,0.61635 -3.826884,1.4365 -4.434034,1.82255 -1.879264,1.19491 -5.035564,2.01765 -6.43507,1.6774 -2.281424,-0.55466 -3.896714,-2.75071 -3.915791,-5.32366 -0.01243,-1.7263 -0.268574,-2.40628 -1.061969,-2.82336 -1.699306,-0.8933 -2.35621,-2.54498 -1.591051,-4.00051 0.549428,-1.0452 0.499532,-1.58466 -0.309259,-3.34334 -0.836964,-1.81992 -0.887851,-2.49338 -0.385139,-5.09637 0.318597,-1.64964 0.567129,-4.63395 0.55232,-6.63182 -0.03246,-4.37671 0.436497,-5.40095 2.845938,-6.21599 1.440785,-0.48738 1.840265,-0.90492 1.832778,-1.91562 -0.02653,-3.57164 2.970396,-7.07277 6.073789,-7.09577 1.948194,-0.0144 3.889176,1.48502 3.900509,3.01325 0.01204,1.60259 1.442717,3.0513 3.64893,3.69451 2.327454,0.67856 4.302026,2.72834 4.300893,4.4647 9.25e-4,0.61255 -0.694653,2.30363 -1.542807,3.75795 -1.821403,3.12309 -1.909684,4.84117 -0.460188,8.95485 1.948126,5.52876 1.317231,8.23902 -2.328316,10.00217 -2.55411,1.23529 -4.959586,0.76943 -6.479556,-1.25484 -0.998112,-1.32931 -1.527367,-1.56221 -3.51643,-1.54746 -1.940765,0.0144 -2.496741,-0.21585 -3.248915,-1.34545 -0.755198,-1.13413 -0.805015,-1.61971 -0.296867,-2.89385 0.335826,-0.84208 0.894976,-2.24612 1.24258,-3.1201 0.537605,-1.35174 0.484453,-1.85817 -0.355819,-3.39115 -0.543298,-0.99116 -0.845153,-2.18226 -0.670802,-2.64688 0.380713,-1.01458 3.440683,-2.40006 5.331699,-2.41408 5.113816,-0.0379 8.64684,6.38182 5.352362,9.72553 -2.46793,2.50479 -6.07035,1.21225 -6.095553,-2.18705 -0.01353,-1.76079 1.720392,-4.38639 2.901681,-4.39515 1.379724,-0.0102 0.765733,-0.97043 -0.837742,-1.31017 -1.741389,-0.36896 -4.560636,0.11035 -5.011427,0.85203 -0.158084,0.25999 0.083,1.17601 0.53559,2.03559 1.112295,2.11241 1.047158,3.40857 -0.290099,5.77248 -1.51869,2.68459 -1.036428,3.75697 1.680463,3.73682 1.684579,-0.0125 2.543735,0.36043 4.174585,1.812 2.271736,2.02199 3.115157,2.18627 5.304894,1.03326 2.473369,-1.30236 2.750201,-3.5421 1.029049,-8.32545 -1.53326,-4.26117 -1.42225,-6.5934 0.447308,-9.39698 0.854059,-1.28074 1.554442,-2.69056 1.556432,-3.13295 0.0071,-1.45684 -1.486644,-2.93562 -3.580773,-3.54615 -2.483498,-0.72406 -3.576016,-1.8321 -4.219942,-4.27987 -0.423694,-1.61063 -0.711451,-1.85714 -2.313872,-1.98235 -2.460586,-0.19226 -4.180347,1.64919 -4.515546,4.83508 -0.242371,2.3037 -0.214545,2.35324 1.660951,2.95683 2.023076,0.65109 3.502519,2.25003 3.513994,3.79786 0.0052,0.71481 -0.419391,0.93906 -1.797696,0.94928 -1.767397,0.013 -2.652637,-0.69177 -4.31502,-3.43588 -0.510008,-0.84186 -0.754312,-0.86803 -2.239645,-0.23984 -1.655038,0.69996 -1.666995,0.7328 -1.639047,4.50236 0.01556,2.08849 -0.232751,5.14815 -0.551604,6.79925 -0.511194,2.64682 -0.461941,3.21699 0.416218,4.81904 0.847272,1.54574 0.903404,2.06791 0.375953,3.49728 -0.678445,1.83853 -0.250388,2.79126 1.496839,3.33158 0.756328,0.2339 1.022051,0.91832 1.159331,2.98618 0.147861,2.22755 0.428951,2.86654 1.656464,3.76603 1.646841,1.20674 1.02732,1.34434 9.308738,-2.06751 5.224791,-2.15256 5.953736,-2.61956 7.07488,-4.53252 0.571995,-0.97593 1.674847,-2.46302 2.450836,-3.30464 l 1.410837,-1.53023 -1.241294,-1.80029 c -2.25714,-3.27359 -2.38373,-8.99446 -0.305139,-13.78924 1.316462,-3.03675 0.725064,-4.00239 -3.730563,-6.09136 -2.923332,-1.37056 -3.562509,-1.89997 -3.706427,-3.06993 -0.27824,-2.26184 1.861099,-3.33774 6.70827,-3.37368 3.416017,-0.0253 4.47071,0.20627 7.407018,1.62642 8.389394,4.05757 14.149796,13.18826 12.711066,20.1481 -1.02798,4.97283 -6.152612,9.99985 -14.674171,14.39469 -2.715632,1.40055 -6.775412,3.12845 -9.021717,3.83979 -2.246295,0.71135 -4.536562,1.70889 -5.089488,2.21677 -1.947627,1.78903 -0.755167,5.10244 1.829405,5.08328 1.746808,-0.013 2.783332,-0.86278 4.007264,-3.28546 1.603334,-3.17359 3.575064,-4.59893 8.11203,-5.8641 5.292238,-1.47578 8.742189,-3.37398 11.848267,-6.51906 3.41835,-3.46124 4.7895,-6.60148 5.03863,-11.53959 0.40018,-7.93137 -2.25902,-12.68035 -9.949986,-17.76936 -4.651276,-3.07769 -5.372347,-3.86289 -5.387204,-5.86632 -0.03382,-4.55525 9.272972,-7.27795 20.22852,-5.91786 5.52721,0.68618 14.51871,3.4698 17.78506,5.50596 3.7341,2.32775 9.91618,2.19416 9.89833,-0.2139 -0.003,-0.45191 -0.41628,-1.50446 -0.91764,-2.33899 -0.89157,-1.48407 -0.87504,-1.58984 0.75426,-4.82583 0.91621,-1.81968 1.66384,-3.56247 1.66144,-3.87287 -0.002,-0.3104 -0.71552,-1.48986 -1.58466,-2.62103 -2.01958,-2.62843 -2.12486,-4.74557 -0.27858,-5.60337 1.75439,-0.81512 2.74674,-0.20928 4.38946,2.67974 3.05482,5.37251 7.44453,7.72121 11.03724,5.90548 2.49627,-1.26159 3.09042,-3.10616 2.18182,-6.7735 -0.88874,-3.58723 -0.52043,-4.89962 2.32497,-8.28464 3.14658,-3.7433 5.44092,-7.26677 5.77794,-8.87336 0.58814,-2.80345 0.66937,-2.89805 1.65155,-1.92323 0.81205,0.806 0.90078,2.1046 0.83354,12.19809 l -0.0753,11.29605 1.39575,-0.0104 c 6.51418,-0.0483 9.09409,8.1212 5.47461,17.33575 -1.20601,3.07025 -1.23461,3.29297 -0.27089,2.10983 3.08225,-3.78405 5.61893,-12.30176 5.57144,-18.70789 -0.0471,-6.36017 -2.79852,-13.36861 -7.48771,-19.07311 -2.03643,-2.47738 -2.5109,-3.35825 -1.93129,-3.58561 1.31188,-0.51459 7.2549,3.00884 10.73524,6.36461 4.6043,4.43949 6.51451,8.52814 7.02023,15.02621 l 0.37833,4.86145 9.59718,0.0723 9.59717,0.0723 0.32095,-1.32016 c 0.74511,-3.0648 -4.94099,-16.08457 -11.73441,-26.86891 -9.56897,-15.19046 -22.7523,-27.65138 -35.02703,-33.10766 -8.33288,-3.70409 -22.1512,-5.81697 -37.22589,-5.692 -5.40841,0.0441 -10.51695,0.36233 -12.36836,0.7687 -8.86751,1.94624 -16.741152,9.64147 -17.393102,16.99893 l -0.218212,2.46257 2.40962,0.89983 c 6.491164,2.42402 8.693474,10.1472 4.300854,15.08237 -1.02113,1.14726 -2.41752,2.2311 -3.103066,2.40859 -0.685565,0.17743 -1.244647,0.56913 -1.24242,0.87036 0.0019,0.30121 1.084779,2.49577 2.405659,4.87677 3.017087,5.43858 3.087097,6.25159 0.503995,5.85204 -1.051087,-0.16258 -2.866291,-0.75943 -4.033809,-1.32634 l -2.12275,-1.03073 -2.576084,1.32949 c -1.416849,0.73122 -3.924049,1.58792 -5.571554,1.90379 -1.647486,0.31586 -3.081303,0.6593 -3.186227,0.76319 -0.300038,0.29706 3.6584,7.07691 5.618029,9.62233 0.974072,1.26526 1.772547,2.50332 1.774386,2.75127 0.0018,0.24794 -11.793727,0.53827 -26.212372,0.64515 -28.86791,0.21401 -29.488778,0.16138 -35.552665,-3.01313 -8.427398,-4.41185 -14.713622,-14.91271 -14.786172,-24.6997 -0.04718,-6.35595 2.658384,-12.9878 7.395155,-18.12727 3.833387,-4.15926 5.944806,-5.32106 11.53428,-6.34656 9.947553,-1.82507 17.311561,-5.7034 24.006143,-12.64307 4.130244,-4.28147 8.239938,-11.690863 9.786594,-17.644344 1.438209,-5.535957 6.129839,-9.221481 12.30159,-9.66354 8.625091,-0.617741 14.13139,4.581989 15.441314,14.581622 0.195337,1.490913 0.739444,2.81266 1.40062,3.402155 1.276664,1.138283 4.34294,1.183076 6.385845,0.09336 1.803919,-0.962264 6.780419,-5.181915 7.929989,-6.723966 0.87934,-1.179549 0.84974,-1.251037 -1.41577,-3.420437 -1.27265,-1.218657 -2.87059,-3.344345 -3.55104,-4.723763 -1.41881,-2.876305 -3.254261,-9.357989 -3.28418,-11.597696 -0.05818,-4.352128 2.67875,-8.242569 5.81488,-8.265816 2.48263,-0.0184 4.90954,2.716953 5.8175,6.556899 0.83325,3.523848 1.06687,14.069676 0.38743,17.487018 l -0.44562,2.241172 3.24744,-0.02411 c 8.23548,-0.06108 11.95089,-5.452658 15.34778,-22.271877 1.5551,-7.699925 3.89142,-13.492487 6.72172,-16.665638 1.92338,-2.156355 2.49241,-2.477655 4.81383,-2.718102 1.66333,-0.172339 3.30768,0.006 4.46614,0.483866 2.18591,0.901944 7.32985,4.829707 7.75946,5.924912 0.61913,1.578362 -0.37613,1.335568 -2.84401,-0.693755 -3.97039,-3.264868 -6.01108,-4.297779 -8.45938,-4.281805 -4.90433,0.03241 -8.39915,6.122498 -11.28014,19.65814 -2.6708,12.548036 -5.77984,18.500796 -11.01019,21.080788 -1.98913,0.981196 -3.01075,1.137268 -6.24335,0.953866 -3.65019,-0.207109 -3.90174,-0.149588 -4.52479,1.035676 -0.8231,1.565785 -5.79877,5.762564 -8.48935,7.160437 -3.598998,1.86982 -7.807188,1.179873 -9.278664,-1.521246 -0.291493,-0.535117 -0.797638,-2.572166 -1.124763,-4.526777 -0.327145,-1.954612 -1.056065,-4.441683 -1.619838,-5.526847 -3.032127,-5.836149 -10.565969,-7.994822 -16.820971,-4.819707 -3.248593,1.648988 -4.771621,3.745615 -6.499064,8.94652 -1.835778,5.527087 -4.095353,9.738539 -7.549623,14.071141 -6.742993,8.45754 -15.516972,13.4955 -27.253523,15.64881 -5.065954,0.92944 -6.796125,1.8894 -10.425711,5.78458 -7.453327,7.99877 -8.857501,18.94828 -3.763824,29.3501 1.758384,3.59083 7.997365,9.84 11.433258,11.45194 5.428131,2.54659 6.420755,2.61978 32.949899,2.42977 l 24.903733,-0.17842 -1.552065,-2.22635 c -0.853633,-1.2245 -2.400082,-3.87872 -3.436525,-5.89828 -1.744965,-3.40011 -2.074155,-3.737 -4.447206,-4.55122 -5.358434,-1.83851 -9.455415,-6.18492 -11.1377,-11.81576 -2.0229,-6.7708 -1.929846,-18.03303 0.183851,-22.25323 1.453318,-2.90165 6.023496,-7.4977 10.425989,-10.48499 4.399739,-2.98543 5.060743,-2.24679 1.737059,1.94102 -4.154828,5.23507 -5.585604,8.62697 -5.484841,13.00275 0.151114,6.55897 5.644787,26.24947 7.960218,28.53084 0.658573,0.64886 1.289941,0.66338 4.178383,0.0962 1.871414,-0.3675 4.152653,-1.13199 5.069386,-1.69883 l 1.666789,-1.03064 -1.828085,-2.47407 c -4.431421,-5.99736 -5.496266,-9.53857 -7.144631,-23.76017 -0.754625,-6.51053 -1.377783,-12.25195 -1.384816,-12.75871 -0.02026,-1.3883 1.200089,-1.11591 2.281223,0.50964 0.953632,1.43384 0.956647,1.41955 0.614697,-2.9006 -0.275375,-3.47887 -0.200169,-4.34261 0.37848,-4.3469 0.397182,-0.003 1.157656,0.94165 1.689936,2.09906 0.5323,1.15743 1.107411,1.96514 1.278027,1.79489 0.170696,-0.17021 0.533826,-2.11174 0.807104,-4.31449 0.273269,-2.20273 0.751598,-4.090658 1.06291,-4.195377 0.843642,-0.283772 1.778596,2.118337 2.465319,6.334017 0.52391,3.21606 0.457629,4.73963 -0.463963,10.66514 -1.719236,11.05429 -1.299997,17.30871 1.758721,26.23774 0.940211,2.74469 1.489344,5.22031 1.316054,5.93311 -0.25387,1.04412 0.0316,1.3675 1.949893,2.20936 1.235981,0.5424 2.33866,0.89343 2.450384,0.78006 0.111594,-0.11347 -1.025943,-2.44611 -2.528115,-5.18382 -1.502162,-2.73771 -2.553701,-5.08393 -2.336768,-5.2138 0.216943,-0.12978 1.153324,-0.40474 2.080861,-0.61084 0.944325,-0.2098 2.374016,-1.16955 3.248841,-2.18096 4.085901,-4.72376 1.751719,-11.3239 -4.586572,-12.96888 -2.25485,-0.58521 -2.311573,-0.6526 -2.32723,-2.76443 -0.04218,-5.68997 3.319366,-11.68375 8.887503,-15.84677 4.46605,-3.33907 7.80938,-4.45044 15.55263,-5.17002 11.16209,-1.0373 31.61361,0.91938 39.93544,3.82082 11.67871,4.07184 22.40259,11.94601 31.72142,23.29196 12.0847,14.7135 23.21242,37.04703 20.60967,41.36395 z m -44.09301,-22.27109 c -0.70217,1.0514 -2.60174,3.49728 -4.22126,5.4353 -2.81074,3.3635 -2.92786,3.62232 -2.57692,5.69382 0.2023,1.1936 0.41766,3.30112 0.47876,4.6834 l 0.11094,2.51324 1.57662,-0.41082 c 0.86713,-0.22595 2.45759,-0.38618 3.53434,-0.35606 l 1.95772,0.0548 0.12719,-5.60775 c 0.0698,-3.08427 0.16362,-7.47747 0.20818,-9.76264 l 0.081,-4.15489 z m -0.5727,19.07021 c -2.35971,-0.49997 -5.42323,0.81878 -6.57521,2.83039 -0.86435,1.50933 -0.9202,2.03997 -0.39452,3.7484 0.50922,1.65487 5.11718,8.11103 7.86045,11.01316 0.61325,0.64878 0.71352,-0.61161 0.65685,-8.25628 l -0.0669,-9.02194 z M 109.47072,66.185593 c -1.06374,-4.030576 -2.2833,-5.546941 -4.4482,-5.530897 -4.8277,0.03577 -5.272975,9.104698 -0.86994,17.716872 1.01555,1.986348 3.93916,5.165555 4.74477,5.159583 0.45011,-0.0034 1.2941,-2.57752 1.73064,-5.278395 0.33747,-2.088041 -0.31261,-8.866821 -1.15727,-12.067163 z M 92.273925,209.45174 c -0.413763,0.41995 -0.275965,0.57798 0.498961,0.57224 1.392004,-0.0103 2.125426,-0.75212 0.966961,-0.97802 -0.491854,-0.0959 -1.151524,0.0867 -1.465922,0.40578 z m -1.8798,-67.17417 c -1.651813,-4.84402 -2.747862,-10.96701 -2.789013,-15.58077 -0.01271,-1.49939 0.461216,-6.16861 1.054695,-10.37606 0.781314,-5.53936 0.953168,-8.37348 0.622908,-10.27246 l -0.456095,-2.62251 -0.534331,3.91086 c -0.293881,2.15098 -0.814554,4.00587 -1.157071,4.12197 -0.342496,0.11618 -1.003176,-0.45235 -1.468177,-1.26326 -0.810989,-1.4143 -0.830496,-1.30825 -0.479259,2.60377 0.400729,4.46314 0.0028,5.04375 -1.813813,2.64621 -1.367679,-1.80506 -1.364217,-1.93783 -0.235649,9.01771 1.178584,11.44124 3.161346,17.56696 7.205258,22.26068 2.096709,2.43361 2.106385,1.58271 0.05063,-4.44614 z m -14.524672,5.40595 C 72.855699,139.86924 70.74186,131.1739 70.39182,125.15121 l -0.336488,-5.78963 1.87753,-3.64301 c 1.032628,-2.00367 1.876744,-3.74987 1.875773,-3.88046 -0.0055,-0.8059 -5.422397,4.58166 -6.799796,6.76354 -2.218884,3.51492 -2.909069,9.10802 -2.009089,16.28149 0.909806,7.2519 3.132604,11.68943 7.404746,14.78266 1.824481,1.321 4.862415,2.49795 4.857849,1.882 -0.0011,-0.1417 -0.627854,-1.88063 -1.392892,-3.86428 z m -1.664226,53.71552 c -0.437849,-0.1643 -1.397607,0.10178 -2.132772,0.59131 -1.79635,1.19613 -1.642983,4.15715 0.228305,4.40829 0.668216,0.0897 1.5552,-0.12363 1.97108,-0.47401 1.015028,-0.85519 0.966731,-4.13783 -0.06652,-4.52559 z m -5.893201,-8.2508 c -0.514249,-0.19297 -0.754094,-0.0735 -0.622978,0.31029 0.268179,0.78513 1.468069,1.20962 1.462934,0.51755 -0.0019,-0.28274 -0.380071,-0.65527 -0.839956,-0.82784 z"
       id="path1" /></g></svg>
